<svg xmlns="http://www.w3.org/2000/svg" width="840" height="720" viewBox="0 0 840 720">
  <defs>
    <linearGradient id="bg" x1="0" y1="0" x2="1" y2="1">
      <stop offset="0" stop-color="#0a1013"/>
      <stop offset="0.5" stop-color="#172126"/>
      <stop offset="1" stop-color="#090d0f"/>
    </linearGradient>
    <radialGradient id="core">
      <stop offset="0" stop-color="#6dcc91" stop-opacity="0.2"/>
      <stop offset="1" stop-color="#6dcc91" stop-opacity="0"/>
    </radialGradient>
    <filter id="glow"><feGaussianBlur stdDeviation="8" result="b"/><feMerge><feMergeNode in="b"/><feMergeNode in="SourceGraphic"/></feMerge></filter>
    <pattern id="grid" width="48" height="48" patternUnits="userSpaceOnUse">
      <path d="M48 0H0V48" fill="none" stroke="#8cb6a0" stroke-opacity="0.045" stroke-width="1"/>
    </pattern>
  </defs>
  <rect width="840" height="720" rx="42" fill="url(#bg)"/>
  <rect x="16" y="16" width="808" height="688" rx="32" fill="none" stroke="#d8ac55" stroke-width="5"/>
  <rect x="29" y="29" width="782" height="662" rx="25" fill="none" stroke="#6dcc91" stroke-opacity="0.4" stroke-width="2"/>
  <rect x="34" y="34" width="772" height="652" rx="22" fill="url(#grid)"/>
  <ellipse cx="420" cy="365" rx="300" ry="260" fill="url(#core)"/>
  <path d="M45 124H795M45 584H795" stroke="#d8ac55" stroke-opacity="0.55" stroke-width="2"/>
  <path d="M65 94h85l22 24h496l22-24h85" fill="none" stroke="#6dcc91" stroke-opacity="0.55" stroke-width="3"/>
  <g fill="#d8ac55" filter="url(#glow)">
    <path d="M420 56l16 18-16 18-16-18z"/>
    <circle cx="60" cy="360" r="6"/><circle cx="780" cy="360" r="6"/>
  </g>
  <g font-family="Arial,Helvetica,sans-serif" text-anchor="middle">
    <text x="420" y="105" fill="#f3e7c7" font-size="30" font-weight="700" letter-spacing="6">COMMANDER DECK FORGE</text>
    <text x="420" y="640" fill="#7fae94" font-size="17" font-weight="700" letter-spacing="5">IN-GAME IMPORT CONSOLE</text>
  </g>
  <g fill="#10171a" stroke="#3c5159" stroke-width="2">
    <rect x="75" y="205" width="330" height="112" rx="16"/>
    <rect x="435" y="205" width="330" height="112" rx="16"/>
    <rect x="75" y="347" width="330" height="112" rx="16"/>
    <rect x="435" y="347" width="330" height="112" rx="16"/>
  </g>
  <rect x="140" y="510" width="560" height="54" rx="13" fill="#090d0f" stroke="#314047" stroke-width="2"/>
</svg>
